<?xml version="1.0" encoding="utf-8"?>
<!-- Generator: Adobe Illustrator 14.0.0, SVG Export Plug-In . SVG Version: 6.00 Build 43363)  -->
<!DOCTYPE svg PUBLIC "-//W3C//DTD SVG 1.1//EN" "http://www.w3.org/Graphics/SVG/1.1/DTD/svg11.dtd">
<svg version="1.1" id="Layer_1" xmlns="http://www.w3.org/2000/svg" xmlns:xlink="http://www.w3.org/1999/xlink" x="0px" y="0px"
	 width="103.539px" height="38.045px" viewBox="0 0 103.539 38.045" enable-background="new 0 0 103.539 38.045"
	 xml:space="preserve">
<g id="layer101">
	<path fill="#3B3135" d="M19.919,31.668c-1.791-0.25-3.659-0.795-5.153-1.494l-0.892-0.412l0.058-1.227
		c0.077-1.553,0.077-1.553,0.527-2.271c0.211-0.334,0.383-0.631,0.383-0.67s0.211-0.373,0.47-0.756
		c0.259-0.385,0.498-0.787,0.527-0.902c0.038-0.123,0.239-0.4,0.459-0.621c0.518-0.537,0.786-0.986,0.92-1.533
		c0.163-0.652,0.152-0.939-0.048-0.939c-0.163,0-0.393,0.297-0.699,0.9c-0.221,0.441-1.236,1.207-1.591,1.207
		c-0.67,0-1.265-0.287-2.261-1.082c-0.546-0.432-1.322-1.035-1.725-1.342c-0.411-0.316-1.024-0.9-1.369-1.303
		c-0.346-0.402-0.757-0.833-0.92-0.958C8.127,17.91,7.6,17,7.427,16.233c-0.22-0.967-0.201-1.59,0.077-2.203
		c0.115-0.287,0.25-0.795,0.288-1.14c0.086-0.862,0.487-1.677,1.158-2.328c0.652-0.651,1.217-0.978,2.491-1.446
		c1.523-0.565,1.906-0.785,2.088-1.169c0.134-0.277,0.297-0.402,0.872-0.661c0.891-0.401,1.217-0.488,2.357-0.632
		c1.005-0.115,1.417-0.278,2.202-0.843c1.82-1.322,1.906-1.352,4.503-1.38l1.676-0.02l0.652,0.308
		c0.449,0.21,0.843,0.507,1.254,0.919c0.528,0.546,0.652,0.623,1.073,0.68c0.527,0.087,1.591,0.479,1.955,0.729
		c0.134,0.096,0.785,0.623,1.455,1.169c0.671,0.546,1.553,1.188,1.965,1.417c0.412,0.23,0.853,0.509,0.977,0.614
		c0.259,0.229,0.844,1.389,0.93,1.858c0.048,0.22,0.211,0.44,0.584,0.766c0.565,0.489,1.246,1.322,1.447,1.792
		c0.287,0.622,0.517,1.639,0.46,2.012c-0.049,0.345-0.432,1.265-0.901,2.126c-0.086,0.174-0.488,0.709-0.881,1.189
		c-0.574,0.699-0.91,0.996-1.648,1.484c-0.517,0.336-0.957,0.613-0.978,0.613c-0.162,0-0.919,0.613-0.919,0.746
		c0,0.088,0.125,0.289,0.278,0.451c0.153,0.152,0.431,0.537,0.612,0.844c0.326,0.535,0.335,0.564,0.288,1.34
		c-0.048,0.766-0.039,0.795,0.249,1.199c0.172,0.219,0.277,0.449,0.248,0.498c-0.028,0.047-0.363,0.344-0.746,0.65
		c-2.137,1.754-4.819,3.018-7.683,3.621c-0.978,0.211-1.457,0.25-3.21,0.277C21.472,31.734,20.265,31.715,19.919,31.668z"/>
</g>
<g id="layer102">
	<path fill="#584D51" d="M19.68,31.619c-1.781-0.258-3.439-0.746-4.914-1.445l-0.892-0.412l0.058-1.227
		c0.077-1.553,0.077-1.553,0.527-2.271c0.211-0.334,0.383-0.631,0.383-0.67s0.211-0.373,0.47-0.756
		c0.259-0.385,0.498-0.787,0.527-0.902c0.038-0.123,0.239-0.4,0.459-0.621c0.518-0.537,0.786-0.986,0.92-1.533
		c0.163-0.652,0.152-0.939-0.048-0.939c-0.163,0-0.393,0.297-0.699,0.9c-0.221,0.441-1.236,1.207-1.591,1.207
		c-0.67,0-1.265-0.287-2.261-1.082c-0.546-0.432-1.322-1.035-1.725-1.342c-0.411-0.316-1.024-0.9-1.369-1.303
		c-0.346-0.402-0.757-0.833-0.92-0.958C8.127,17.91,7.6,17,7.427,16.233c-0.22-0.967-0.201-1.59,0.077-2.203
		c0.115-0.287,0.25-0.795,0.288-1.14c0.086-0.862,0.487-1.677,1.158-2.328c0.652-0.651,1.217-0.978,2.491-1.446
		c1.523-0.565,1.906-0.785,2.088-1.169c0.288-0.594,1.849-1.179,3.516-1.313l0.623-0.057l-0.384,0.134
		c-0.21,0.066-0.564,0.134-0.785,0.134c-0.393,0.01-0.402,0.01-0.459,0.422c-0.058,0.354-0.02,0.488,0.277,1.025
		c0.191,0.344,0.363,0.67,0.383,0.718c0.393,1.111,0.412,1.313,0.154,1.687l-0.202,0.268l-0.642-0.239l-0.642-0.24l-0.191,0.24
		c-0.105,0.124-0.308,0.269-0.46,0.297c-0.336,0.086-0.412,0.221-0.221,0.364c0.134,0.105,0.114,0.163-0.134,0.565
		c-0.229,0.363-0.249,0.45-0.134,0.498c0.296,0.114,0.488,0.058,0.757-0.23c0.258-0.268,0.287-0.277,0.449-0.124
		c0.105,0.096,0.153,0.229,0.115,0.335c-0.039,0.144-0.01,0.182,0.125,0.153c0.114-0.02,0.182,0.038,0.201,0.191
		c0.02,0.115,0.153,0.278,0.315,0.354c0.182,0.097,0.278,0.221,0.278,0.374c0,0.316-0.067,0.345-0.44,0.191
		c-0.374-0.153-0.374-0.153-0.182,0.307c0.134,0.325,0.134,0.335-0.125,0.431l-0.26,0.097l0.528,0.335
		c0.382,0.239,0.536,0.297,0.594,0.201c0.114-0.192,0.479-0.163,0.996,0.086c0.594,0.287,0.978,0.249,1.609-0.162
		c0.546-0.364,0.642-0.738,0.307-1.246c-0.192-0.278-0.316-0.373-0.633-0.421c-0.479-0.077-0.517-0.048-0.373,0.277
		c0.105,0.221,0.096,0.269-0.067,0.383c-0.096,0.076-0.192,0.097-0.211,0.048c-0.02-0.048-0.153-0.086-0.287-0.086l-0.259-0.01
		l0.269-0.162c0.258-0.163,0.335-0.346,0.172-0.441c-0.105-0.066-0.699,0.221-0.834,0.412c-0.095,0.125-0.143,0.125-0.373-0.028
		c-0.19-0.125-0.239-0.221-0.19-0.374c0.028-0.114,0.086-0.374,0.114-0.584c0.048-0.278,0.124-0.412,0.354-0.547
		c0.163-0.096,0.488-0.421,0.737-0.728c0.498-0.633,0.719-1.331,0.613-1.944c-0.048-0.259-0.029-0.441,0.058-0.537
		c0.077-0.096,0.124-0.536,0.124-1.341c0.01-1.159,0.02-1.217,0.239-1.398c0.202-0.153,0.212-0.201,0.096-0.278
		c-0.152-0.105,0.067-0.325,0.987-0.938c0.709-0.479,1.313-0.585,3.43-0.613l1.676-0.02l0.652,0.308
		c0.449,0.21,0.843,0.507,1.254,0.919c0.528,0.546,0.652,0.623,1.073,0.68c0.527,0.087,1.591,0.479,1.955,0.729
		c0.134,0.096,0.785,0.623,1.455,1.169c0.671,0.546,1.553,1.188,1.965,1.417c0.412,0.23,0.853,0.509,0.977,0.614
		c0.259,0.229,0.844,1.389,0.93,1.858c0.048,0.22,0.211,0.44,0.584,0.766c0.565,0.489,1.246,1.322,1.447,1.792
		c0.287,0.622,0.517,1.639,0.46,2.012c-0.049,0.345-0.432,1.265-0.901,2.126c-0.086,0.174-0.488,0.709-0.881,1.189
		c-0.574,0.699-0.91,0.996-1.648,1.484c-0.517,0.336-0.957,0.613-0.978,0.613c-0.162,0-0.919,0.613-0.919,0.746
		c0,0.088,0.125,0.289,0.278,0.451c0.153,0.152,0.431,0.537,0.612,0.844c0.326,0.535,0.335,0.564,0.288,1.34
		c-0.048,0.766-0.039,0.795,0.259,1.217l0.315,0.422l-0.507,0.441c-0.853,0.736-2.117,1.6-3.086,2.107
		c-0.517,0.268-0.938,0.449-0.938,0.393c0-0.164-0.383-0.498-0.479-0.441c-0.058,0.039-0.096,0.162-0.096,0.287
		c0,0.316-0.135,0.375-0.479,0.191c-0.268-0.133-0.287-0.182-0.287-0.67c0-0.422,0.038-0.535,0.182-0.623
		c0.153-0.076,0.211-0.057,0.277,0.059c0.059,0.105,0.106,0.125,0.153,0.047c0.049-0.066-0.095-0.172-0.363-0.297
		c-0.526-0.221-0.604-0.527-0.172-0.689c0.363-0.145,0.709-0.66,0.555-0.852c-0.077-0.107-0.191-0.125-0.44-0.078
		c-0.182,0.039-0.374,0.039-0.421-0.01c-0.105-0.105,0.555-0.439,1.034-0.525c0.297-0.059,0.393-0.039,0.612,0.162
		c0.145,0.135,0.336,0.268,0.432,0.297c0.087,0.039,0.163,0.164,0.163,0.277c0,0.182,0.02,0.191,0.096,0.076
		c0.048-0.076,0.096-0.268,0.096-0.41c0-0.145,0.058-0.287,0.135-0.316c0.096-0.039,0.114-0.154,0.086-0.412
		c-0.029-0.221-0.01-0.393,0.058-0.432c0.144-0.086,0.134-0.852-0.01-0.996c-0.087-0.086-0.067-0.162,0.096-0.336
		c0.259-0.268,0.269-0.354,0.039-0.354c-0.25,0-0.327-0.105-0.202-0.25c0.202-0.238-0.01-0.354-0.556-0.287
		c-0.432,0.049-0.584,0.029-0.843-0.135c-0.278-0.172-0.374-0.182-0.737-0.096c-0.69,0.174-0.7,0.174-0.681-0.152
		c0.019-0.24-0.029-0.346-0.221-0.471c-0.229-0.152-0.248-0.199-0.21-0.68c0.028-0.287,0.02-0.545-0.02-0.564
		c-0.038-0.029-0.096-0.383-0.134-0.805c-0.067-0.729-0.058-0.766,0.22-1.217c0.163-0.248,0.316-0.613,0.345-0.796
		c0.028-0.191,0.105-0.508,0.163-0.699c0.077-0.277,0.077-0.393-0.009-0.498c-0.135-0.163-0.067-0.345,0.134-0.345
		c0.067,0,0.229-0.124,0.354-0.278c0.124-0.152,0.316-0.325,0.431-0.383c0.182-0.096,0.202-0.144,0.105-0.345
		c-0.115-0.259,0.02-0.719,0.316-1.054c0.114-0.125,0.182-0.383,0.201-0.767l0.028-0.574l0.671-0.049
		c0.565-0.038,0.671-0.076,0.643-0.21c-0.021-0.105,0.086-0.221,0.268-0.316c0.326-0.163,0.383-0.46,0.134-0.728
		c-0.115-0.125-0.124-0.211-0.048-0.364c0.163-0.307,0.124-0.488-0.134-0.585c-0.134-0.048-0.24-0.134-0.24-0.182
		s-0.096-0.115-0.21-0.144l-0.221-0.067l0.221-0.153c0.316-0.22,0.259-0.374-0.192-0.488c-0.564-0.144-0.833-0.354-0.67-0.508
		c0.163-0.172,0.144-0.277-0.067-0.277c-0.115,0-0.325-0.192-0.536-0.479c-0.191-0.259-0.383-0.479-0.422-0.479
		c-0.038,0-0.144-0.057-0.239-0.124c-0.144-0.105-0.153-0.162-0.067-0.335c0.087-0.173,0.077-0.221-0.086-0.307
		C28.436,7.756,28.35,7.66,28.34,7.593c0-0.066-0.172-0.259-0.374-0.431l-0.373-0.316l-0.249,0.44c-0.144,0.24-0.25,0.45-0.23,0.47
		c0.02,0.019,0.135,0.077,0.24,0.135c0.182,0.096,0.221,0.22,0.259,0.9c0.086,1.254,0.152,1.504,0.459,1.724
		c0.23,0.173,0.278,0.278,0.278,0.594c0,0.336,0.048,0.422,0.287,0.556c0.307,0.173,0.47,0.594,0.315,0.844
		c-0.057,0.086-0.152,0.65-0.22,1.255c-0.086,0.795-0.162,1.13-0.287,1.235c-0.086,0.087-0.191,0.316-0.221,0.527
		c-0.144,0.862-0.259,1.082-1.063,1.925c-0.44,0.47-0.872,0.996-0.968,1.179c-0.239,0.48-0.152,1.035,0.307,1.764
		c0.23,0.363,0.403,0.775,0.441,1.043c0.057,0.432,0.048,0.461-0.249,0.672c-0.162,0.115-0.661,0.545-1.093,0.957
		c-0.431,0.412-0.823,0.748-0.881,0.748s-0.211,0.162-0.336,0.373c-0.248,0.393-0.795,0.672-2.375,1.197
		c-0.834,0.277-1.255,0.307-1.974,0.115c-0.421-0.105-0.594-0.221-0.996-0.672c-0.259-0.295-0.613-0.611-0.786-0.688
		c-0.163-0.088-0.411-0.26-0.545-0.395c-0.288-0.268-0.433-0.172-0.326,0.23c0.038,0.182,0,0.307-0.183,0.498
		c-0.153,0.164-0.249,0.385-0.268,0.633c-0.029,0.346-0.058,0.383-0.384,0.459c-0.316,0.076-0.345,0.105-0.239,0.27
		c0.105,0.172,0.115,0.172,0.326-0.029c0.211-0.191,0.239-0.201,0.383-0.047c0.153,0.143,0.144,0.172-0.058,0.391
		c-0.124,0.125-0.345,0.289-0.498,0.346c-0.269,0.115-0.278,0.125-0.115,0.383c0.153,0.27,0.153,0.279-0.144,0.623
		c-0.172,0.182-0.306,0.402-0.306,0.479c0,0.145,0.574,0.623,0.756,0.623c0.059,0,0.278-0.086,0.488-0.191
		c0.441-0.221,0.547-0.125,0.336,0.277c-0.077,0.164-0.145,0.488-0.145,0.738c0,0.412,0.011,0.441,0.135,0.277
		c0.076-0.115,0.183-0.152,0.297-0.115c0.163,0.068,0.163,0.182,0,0.691c-0.048,0.162,0.01,0.229,0.287,0.363
		c0.423,0.201,1.313,0.23,1.236,0.029c-0.086-0.23,0.412-0.461,0.833-0.393c0.45,0.076,0.661,0.344,0.661,0.832
		c0,0.191,0.048,0.383,0.096,0.412c0.173,0.105,0.105,0.24-0.115,0.23C20.638,31.744,20.15,31.688,19.68,31.619z M30.84,27.988
		c0-0.057-0.057-0.182-0.125-0.268c-0.114-0.145-0.134-0.115-0.22,0.211c-0.105,0.363-0.096,0.363,0.124,0.258
		C30.736,28.143,30.84,28.047,30.84,27.988z M16.375,24.799c0-0.076,0.164-0.297,0.365-0.479c0.345-0.316,0.345-0.336,0.162-0.471
		c-0.229-0.172-0.354-0.133-0.488,0.145c-0.058,0.115-0.211,0.316-0.325,0.441c-0.221,0.229-0.221,0.238-0.048,0.43
		C16.222,25.066,16.375,25.039,16.375,24.799z M22.889,18.552c0.135-0.47,0.125-0.526-0.086-0.718
		c-0.153-0.144-0.239-0.153-0.546-0.067c-0.23,0.067-0.412,0.067-0.527,0.01c-0.096-0.058-0.345-0.096-0.556-0.096
		c-0.383,0-0.393,0.01-0.393,0.315c0.01,0.402,0.479,1.025,0.929,1.227c0.337,0.145,0.364,0.135,0.719-0.096
		C22.678,18.965,22.823,18.783,22.889,18.552z M26.281,15.219c0.384,0.057,0.44,0.028,0.909-0.384
		c0.451-0.393,0.489-0.46,0.441-0.737c-0.096-0.508-0.259-0.719-0.681-0.93c-0.45-0.21-0.642-0.191-1.494,0.173
		c-0.239,0.105-0.469,0.124-0.719,0.076l-0.363-0.066l0.268-0.192c0.336-0.248,0.326-0.439-0.028-0.564l-0.278-0.105l0.326-0.316
		c0.173-0.182,0.354-0.422,0.393-0.546c0.029-0.124,0.191-0.402,0.346-0.632c0.2-0.297,0.269-0.479,0.229-0.643
		c-0.048-0.2-0.02-0.248,0.201-0.297c0.546-0.115,0.738-0.201,0.834-0.354c0.144-0.23,0.009-0.298-0.326-0.163
		c-0.192,0.076-0.479,0.095-0.872,0.057c-1.035-0.124-1.083-0.22-0.326-0.775c0.288-0.211,0.528-0.412,0.528-0.44
		c0-0.115-0.7-0.374-0.872-0.326c-0.135,0.048-0.183,0.01-0.183-0.134c0-0.105,0.038-0.221,0.096-0.249
		c0.058-0.039,0.038-0.163-0.048-0.346c-0.114-0.21-0.211-0.277-0.431-0.277c-0.239,0-0.287-0.038-0.287-0.239
		c0-0.287-0.432-0.546-0.719-0.422c-0.288,0.115-1.063,0.096-1.332-0.028c-0.221-0.096-0.269-0.077-0.431,0.134
		c-0.134,0.163-0.364,0.277-0.748,0.354c-0.709,0.163-0.891,0.259-0.891,0.488c0,0.105-0.086,0.326-0.191,0.499
		c-0.249,0.411-0.239,0.728,0.029,1.015l0.21,0.229L19.642,9.26c-0.124,0.096-0.307,0.182-0.402,0.182
		c-0.259,0-0.23,0.212,0.066,0.47c0.212,0.182,0.24,0.269,0.192,0.574c-0.038,0.24-0.01,0.422,0.086,0.547
		c0.077,0.096,0.144,0.325,0.144,0.498c0,0.259,0.058,0.335,0.326,0.46c0.374,0.182,0.632,0.574,0.632,0.968
		c0,0.152,0.038,0.316,0.086,0.373c0.048,0.048,0.115,0.287,0.153,0.527c0.067,0.421,0.058,0.44-0.229,0.564
		c-0.373,0.154-0.968,0.862-0.729,0.862c0.087,0,0.365-0.096,0.623-0.2c0.258-0.116,0.536-0.183,0.604-0.154
		c0.077,0.029,0.259-0.028,0.412-0.134c0.335-0.22,0.613-0.239,0.613-0.038c0,0.163,0.153,0.191,0.239,0.048
		c0.105-0.172,0.335-0.105,0.604,0.172c0.239,0.259,0.968,0.623,1.407,0.709c0.106,0.02,0.461-0.086,0.796-0.239
		C25.754,15.219,25.955,15.18,26.281,15.219z"/>
	<path fill="#584D51" d="M21.548,31.639c-0.393-0.105-0.432-0.145-0.412-0.393c0.029-0.393,0.153-0.488,0.422-0.326
		c0.364,0.201,0.891,0.162,0.948-0.066c0.076-0.26,0.651-0.441,1.466-0.471c0.449-0.018,0.68-0.066,0.737-0.162
		c0.049-0.076,0.183-0.135,0.307-0.135c0.172,0,0.239-0.096,0.393-0.574c0.125-0.422,0.144-0.623,0.077-0.738
		c-0.145-0.238,0.028-0.307,0.354-0.133c0.449,0.23,0.938,0.287,1.006,0.115c0.028-0.078,0.287-0.26,0.556-0.404
		c0.479-0.238,0.507-0.238,0.632-0.076c0.163,0.23,0.153,0.471-0.029,0.623c-0.086,0.068-0.124,0.201-0.096,0.307
		c0.029,0.115-0.038,0.316-0.152,0.469c-0.163,0.23-0.239,0.27-0.45,0.221c-0.336-0.086-0.489-0.221-0.489-0.439
		c0-0.105-0.038-0.184-0.086-0.184s-0.153-0.027-0.239-0.057c-0.115-0.039-0.153,0-0.153,0.145c0,0.133-0.106,0.258-0.336,0.363
		c-0.258,0.125-0.306,0.182-0.22,0.287c0.076,0.096,0.058,0.182-0.105,0.346c-0.229,0.258-0.269,0.594-0.067,0.67
		c0.249,0.096,0.067,0.441-0.269,0.498c-0.862,0.145-1.705,0.24-2.298,0.24h-0.652l0.048-0.26l0.058-0.268l-0.115,0.268
		C22.267,31.791,22.191,31.801,21.548,31.639z"/>
	<path fill="#584D51" d="M26.531,31.18c0-0.049,0.038-0.078,0.086-0.049s0.114-0.01,0.144-0.096c0.038-0.086,0.124-0.135,0.2-0.096
		c0.096,0.029,0.144-0.01,0.144-0.135c0-0.248,0.202-0.344,0.336-0.162c0.096,0.145,0.135,0.145,0.316,0.01
		c0.134-0.096,0.21-0.25,0.21-0.422c0-0.363,0.145-0.441,0.441-0.24c0.172,0.115,0.229,0.221,0.211,0.412
		c-0.029,0.23-0.115,0.279-0.987,0.566C26.531,31.313,26.531,31.313,26.531,31.18z"/>
	<path fill="#584D51" d="M22.353,30.488c-0.096-0.268,0-0.498,0.239-0.525c0.374-0.059,0.413,0.113,0.105,0.412
		C22.458,30.604,22.411,30.623,22.353,30.488z"/>
	<path fill="#584D51" d="M22.287,29.195c-0.039-0.047,0.057-0.229,0.21-0.402c0.249-0.297,0.288-0.314,0.585-0.229
		c0.172,0.047,0.335,0.143,0.354,0.199C23.502,28.957,22.381,29.369,22.287,29.195z"/>
	<path fill="#584D51" d="M18.185,28.832l-0.229-0.24l0.239-0.191c0.375-0.297,0.557-0.383,0.613-0.287
		c0.029,0.049-0.009,0.135-0.086,0.201c-0.076,0.066-0.144,0.24-0.144,0.393C18.579,29.08,18.455,29.119,18.185,28.832z"/>
	<path fill="#584D51" d="M23.924,28.688c-0.259-0.143-0.201-0.43,0.124-0.67c0.239-0.172,0.335-0.191,0.527-0.096
		c0.259,0.115,0.326,0.545,0.114,0.756C24.547,28.822,24.144,28.822,23.924,28.688z"/>
	<path fill="#584D51" d="M18.061,27.836c-0.268-0.326-0.306-0.432-0.153-0.527c0.153-0.096,0.45,0.125,0.518,0.393
		C18.531,28.104,18.349,28.17,18.061,27.836z"/>
	<path fill="#584D51" d="M20.13,27.107c-0.287-0.201-0.183-0.336,0.202-0.258c0.354,0.066,0.563,0.199,0.487,0.324
		C20.744,27.309,20.371,27.27,20.13,27.107z"/>
	<path fill="#584D51" d="M29.337,25.824c-0.173-0.105-0.337-0.297-0.374-0.422c-0.059-0.24-0.067-0.24-0.345-0.096
		c-0.191,0.105-0.326,0.115-0.384,0.057c-0.115-0.115,0.632-0.545,0.776-0.449c0.096,0.057,0.315-0.182,0.278-0.297
		c-0.01-0.049,0.162-0.277,0.382-0.498c0.364-0.393,0.595-0.461,0.595-0.172c0,0.076,0.067,0.182,0.144,0.248
		c0.201,0.172,0.182,0.508-0.058,0.805c-0.162,0.211-0.183,0.277-0.076,0.402c0.086,0.105,0.086,0.201,0.01,0.373
		C30.152,26.072,29.767,26.092,29.337,25.824z"/>
</g>
<g id="layer103">
	<path fill="#867779" d="M18.292,31.371c-1.169-0.26-2.501-0.709-3.516-1.188l-0.892-0.422l0.01-0.412
		c0-0.23,0.038-0.604,0.076-0.844c0.059-0.402,0.068-0.412,0.135-0.162c0.038,0.143,0.115,0.258,0.163,0.258
		s0.229,0.125,0.402,0.279c0.172,0.152,0.46,0.305,0.632,0.344c0.278,0.057,0.307,0.096,0.307,0.439v0.375l0.364-0.059
		c0.345-0.057,0.383-0.037,0.488,0.211c0.096,0.25,0.153,0.279,0.575,0.287c0.334,0,0.613,0.088,0.996,0.309
		c0.316,0.182,0.68,0.307,0.871,0.307c0.269,0,0.326,0.037,0.364,0.238C19.326,31.609,19.354,31.609,18.292,31.371z"/>
	<path fill="#867779" d="M31.856,28.898c-0.028-0.037,0.059-0.125,0.183-0.182c0.134-0.066,0.239-0.076,0.239-0.039
		C32.278,28.793,31.904,28.984,31.856,28.898z"/>
	<path fill="#867779" d="M32.584,27.971c-0.173-0.078-0.307-0.174-0.288-0.211c0.259-0.508,0.316-0.586,0.585-0.633l0.307-0.057
		l-0.384-0.24c-0.211-0.125-0.498-0.26-0.642-0.289c-0.144-0.037-0.287-0.094-0.315-0.143c-0.097-0.152,0.067-0.373,0.335-0.432
		c0.22-0.047,0.277-0.123,0.326-0.449c0.047-0.279,0.018-0.451-0.087-0.613c-0.077-0.125-0.144-0.297-0.144-0.393
		s-0.067-0.26-0.144-0.355c-0.077-0.105-0.144-0.326-0.144-0.498s-0.049-0.326-0.105-0.344c-0.058-0.02,0.077-0.174,0.287-0.346
		c0.315-0.258,0.393-0.287,0.393-0.143c0,0.086,0.125,0.297,0.278,0.459c0.153,0.152,0.431,0.537,0.612,0.844
		c0.326,0.535,0.335,0.564,0.288,1.34c-0.048,0.766-0.039,0.795,0.249,1.188c0.345,0.471,0.364,0.557,0.124,0.422
		c-0.22-0.115-0.402,0.039-0.402,0.336c0,0.135-0.124,0.316-0.316,0.459C33.035,28.152,33.015,28.162,32.584,27.971z"/>
	<path fill="#867779" d="M14.814,25.633c0.066-0.24,0.183-0.326,0.269-0.191c0.066,0.104-0.105,0.383-0.24,0.383
		C14.794,25.824,14.785,25.736,14.814,25.633z"/>
	<path fill="#867779" d="M20.59,25.326c-0.182-0.049-0.402-0.154-0.488-0.23c-0.077-0.066-0.288-0.162-0.46-0.191
		c-0.22-0.047-0.47-0.24-0.843-0.662c-0.364-0.412-0.719-0.689-1.102-0.871c-0.537-0.258-0.565-0.287-0.518-0.545l0.057-0.27
		l-0.344,0.27l-0.346,0.258l0.288-0.432c0.277-0.42,0.497-1.111,0.497-1.561c0-0.182-0.048-0.25-0.191-0.25
		c-0.191,0-0.191,0,0-0.479c0.259-0.652,0.259-1.648,0-2.251c-0.104-0.25-0.191-0.557-0.191-0.681c0-0.134-0.095-0.604-0.2-1.044
		c-0.202-0.805-0.192-1.294,0.038-1.294c0.058,0,0.325,0.105,0.583,0.239c0.289,0.145,0.633,0.24,0.892,0.24
		c0.355,0,0.412,0.028,0.412,0.2c0,0.154,0.038,0.183,0.173,0.135c0.086-0.038,0.421-0.087,0.737-0.115
		c0.325-0.028,0.719-0.134,0.9-0.249l0.325-0.201l0.221,0.278c0.211,0.268,0.221,0.268,0.978,0.21
		c0.729-0.058,0.767-0.048,0.881,0.163c0.202,0.394,0.527,0.47,1.858,0.451c1.39-0.029,1.581-0.097,1.974-0.729
		c0.115-0.182,0.269-0.335,0.345-0.335s0.135-0.059,0.135-0.125c0-0.067,0.134-0.278,0.297-0.479
		c0.259-0.316,0.297-0.421,0.249-0.757c-0.096-0.698-0.853-1.216-1.581-1.072c-0.421,0.086-0.785-0.029-0.785-0.24
		c0-0.239,0.124-0.325,0.891-0.632c0.68-0.277,0.833-0.431,0.833-0.891c0-0.229,0.058-0.307,0.298-0.412
		c0.277-0.115,0.315-0.105,0.488,0.105c0.096,0.115,0.221,0.402,0.278,0.633c0.057,0.229,0.162,0.469,0.239,0.526
		c0.096,0.076,0.134,0.354,0.134,0.996v0.891l-0.335,0.211c-0.384,0.239-0.479,0.499-0.394,1.083c0.039,0.277,0,0.632-0.134,1.121
		c-0.182,0.642-0.248,0.756-0.757,1.216c-0.747,0.671-1.006,1.218-0.938,1.993c0.086,0.939,0.22,1.379,0.547,1.84
		c0.296,0.412,0.306,0.441,0.143,0.535c-0.104,0.059-0.46,0.355-0.795,0.662c-0.326,0.316-0.757,0.633-0.938,0.709
		s-0.565,0.363-0.834,0.641c-0.546,0.547-1.533,1.111-2.356,1.352C21.166,25.459,21.069,25.459,20.59,25.326z M22.678,19.021
		c0.403-0.565,0.499-0.757,0.451-0.948c-0.096-0.421-0.278-0.479-1.38-0.46l-1.016,0.019L20.706,17.9
		c-0.039,0.346,0.19,0.834,0.518,1.131c0.144,0.125,0.363,0.346,0.507,0.498c0.135,0.145,0.288,0.25,0.345,0.23
		C22.124,19.74,22.401,19.404,22.678,19.021z"/>
	<path fill="#867779" d="M15.139,25.086c0.067-0.096,0.135-0.191,0.153-0.211c0.01-0.01,0.067,0,0.125,0.039
		c0.076,0.047,0.047,0.105-0.067,0.201C15.111,25.297,14.987,25.277,15.139,25.086z"/>
	<path fill="#867779" d="M13.54,22.576c-0.172-0.105-0.335-0.24-0.373-0.297c-0.059-0.086,0.632,0.287,0.804,0.441
		C14.095,22.834,13.789,22.73,13.54,22.576z"/>
	<path fill="#867779" d="M11.585,20.373c0-0.096,0.287-0.23,0.354-0.164c0.029,0.029,0.02,0.088-0.019,0.145
		C11.843,20.479,11.585,20.498,11.585,20.373z"/>
	<path fill="#867779" d="M10.138,19.893l-0.421-0.41l0.383,0.221c0.499,0.277,0.557,0.334,0.509,0.479
		C10.58,20.258,10.417,20.162,10.138,19.893z"/>
	<path fill="#867779" d="M37.259,18.035c0-0.067,0.066-0.211,0.144-0.316c0.125-0.163,0.134-0.153,0.038,0.134
		C37.335,18.169,37.259,18.246,37.259,18.035z"/>
	<path fill="#867779" d="M37.662,17c0.048-0.277,0.066-0.775,0.038-1.092l-0.048-0.575l0.153,0.498
		c0.163,0.547,0.114,1.217-0.105,1.523C37.584,17.498,37.584,17.45,37.662,17z"/>
	<path fill="#867779" d="M34.079,16.225c-0.02-0.163-0.076-0.211-0.239-0.191c-0.22,0.028-0.891-0.24-0.891-0.354
		c0-0.096,0.535-0.394,0.698-0.394c0.298,0,0.269-0.2-0.048-0.335c-0.191-0.077-0.248-0.134-0.144-0.144
		c0.23,0,0.93,0.402,0.93,0.546c0,0.211,0.163,0.221,0.422,0.019c0.134-0.104,0.248-0.144,0.248-0.086s0.153,0.25,0.336,0.441
		c0.183,0.182,0.335,0.421,0.335,0.526c0,0.183-0.038,0.192-0.498,0.135c-0.277-0.039-0.574-0.106-0.651-0.145
		c-0.086-0.058-0.201-0.028-0.307,0.067C34.126,16.436,34.107,16.426,34.079,16.225z"/>
	<path fill="#867779" d="M7.37,16.033c0-0.087-0.028-0.221-0.057-0.298c-0.029-0.076,0.019-0.162,0.114-0.2
		c0.23-0.087,0.25-0.029,0.097,0.335C7.437,16.052,7.379,16.119,7.37,16.033z"/>
	<path fill="#867779" d="M32.508,15.008c0-0.115,0.085-0.201,0.21-0.23c0.163-0.028,0.201,0,0.153,0.115
		c-0.048,0.145-0.201,0.297-0.307,0.297C32.536,15.189,32.508,15.104,32.508,15.008z"/>
	<path fill="#867779" d="M37.441,14.979c-0.191-0.325-0.364-0.843-0.268-0.785c0.104,0.058,0.488,0.92,0.431,0.968
		C37.584,15.189,37.508,15.104,37.441,14.979z"/>
	<path fill="#867779" d="M19.594,13.715c-0.547-0.575-0.824-0.681-1.418-0.527c-0.229,0.058-0.498,0.096-0.603,0.096
		c-0.183,0-0.528-0.354-0.519-0.537c0-0.048,0.239-0.354,0.527-0.66l0.517-0.574l0.269,0.248c0.345,0.326,0.891,0.652,1.093,0.652
		c0.22,0,0.718,0.44,0.9,0.785c0.182,0.354,0.096,1.034-0.125,1.034C20.15,14.231,19.862,14.002,19.594,13.715z"/>
	<path fill="#867779" d="M36.349,13.322c-0.153-0.125-0.259-0.26-0.229-0.278c0.027-0.029,0.172,0.076,0.325,0.23
		C36.78,13.618,36.742,13.638,36.349,13.322z"/>
	<path fill="#867779" d="M7.802,12.919c0.038-0.574,0.334-1.513,0.401-1.303c0.028,0.067-0.028,0.239-0.105,0.402
		c-0.086,0.153-0.153,0.47-0.162,0.7c0,0.229-0.048,0.498-0.096,0.604C7.773,13.456,7.763,13.331,7.802,12.919z"/>
	<path fill="#867779" d="M35.17,12.038c-0.105-0.173-0.163-0.402-0.134-0.536c0.019-0.135,0.058-0.24,0.066-0.24
		c0.067,0,0.355,0.978,0.307,1.025C35.382,12.315,35.267,12.2,35.17,12.038z"/>
	<path fill="#867779" d="M12.639,11.214c-0.144-0.172-0.325-0.182-0.584-0.019c-0.164,0.096-0.212,0.086-0.316-0.048
		c-0.086-0.115-0.259-0.173-0.518-0.173c-0.335,0-0.412-0.039-0.594-0.335c-0.221-0.364-0.23-0.805,0-0.91
		c1.006-0.498,1.379-0.671,1.446-0.671c0.038,0,0.211,0.191,0.374,0.431c0.335,0.479,0.488,0.527,0.719,0.221l0.153-0.221
		l0.182,0.24c0.44,0.556,0.345,0.986-0.229,1.034c-0.336,0.029-0.471,0.221-0.25,0.354c0.154,0.096,0.106,0.239-0.086,0.239
		C12.84,11.357,12.706,11.291,12.639,11.214z"/>
	<path fill="#867779" d="M15.302,9.547c-0.432-0.67-0.432-0.68-0.201-0.68c0.134,0,0.354-0.086,0.498-0.182l0.259-0.192l0.364,0.729
		l0.354,0.718l-0.259-0.057c-0.211-0.058-0.297-0.029-0.421,0.134C15.743,10.218,15.733,10.208,15.302,9.547z"/>
	<path fill="#867779" d="M30.85,8.877c-0.077-0.048-0.191-0.288-0.249-0.527c-0.096-0.373-0.096-0.459,0.048-0.584
		c0.135-0.125,0.23-0.077,0.948,0.507c0.729,0.585,0.9,0.892,0.336,0.585c-0.191-0.096-0.308-0.096-0.556-0.01
		C31.013,8.982,31.023,8.982,30.85,8.877z"/>
	<path fill="#867779" d="M14.077,8.053c-0.125-0.144-0.048-0.374,0.105-0.287c0.048,0.038,0.134,0.144,0.182,0.249
		c0.076,0.144,0.066,0.182-0.029,0.182C14.258,8.196,14.143,8.129,14.077,8.053z"/>
	<path fill="#867779" d="M25.907,5.658l-0.277-0.23l0.259-0.096c0.144-0.058,0.258-0.163,0.258-0.249
		c0-0.201,0.096-0.182,0.432,0.096c0.23,0.183,0.249,0.221,0.087,0.183c-0.202-0.058-0.375,0.086-0.433,0.363
		C26.194,5.859,26.156,5.85,25.907,5.658z"/>
</g>
<g id="layer104">
	<path fill="#B4ADB0" d="M15.56,30.527c-0.469-0.201-1.005-0.432-1.178-0.527l-0.306-0.162l0.144-0.336
		c0.076-0.191,0.144-0.373,0.144-0.412c0-0.027,0.086,0.049,0.182,0.172c0.153,0.193,0.201,0.213,0.394,0.107
		c0.172-0.098,0.239-0.088,0.363,0.037c0.134,0.135,0.134,0.191,0.038,0.346c-0.105,0.172-0.086,0.229,0.144,0.432
		c0.153,0.123,0.47,0.277,0.729,0.334c0.269,0.066,0.45,0.172,0.45,0.25C16.663,30.959,16.519,30.93,15.56,30.527z"/>
	<path fill="#B4ADB0" d="M13.914,29.271c0-0.287,0.019-0.41,0.038-0.258c0.019,0.145,0.019,0.373,0,0.527
		C13.932,29.684,13.914,29.561,13.914,29.271z"/>
	<path fill="#B4ADB0" d="M21.367,24.762c-0.125-0.049-0.316-0.068-0.412-0.029c-0.269,0.086-0.747-0.145-0.853-0.412
		c-0.059-0.145-0.163-0.221-0.316-0.221s-0.22-0.049-0.211-0.164c0-0.105-0.066-0.182-0.182-0.201
		c-0.105-0.008-0.269-0.152-0.354-0.307c-0.087-0.152-0.335-0.363-0.556-0.479c-0.211-0.105-0.479-0.336-0.575-0.508
		c-0.2-0.326-0.248-0.498-0.104-0.412c0.124,0.086,0.584-0.105,0.584-0.238c0-0.059-0.086-0.125-0.183-0.154
		c-0.153-0.037-0.172-0.076-0.086-0.219c0.134-0.213,0.028-0.518-0.163-0.441c-0.096,0.029-0.144-0.01-0.144-0.125
		c0-0.135,0.048-0.172,0.182-0.135c0.278,0.068,0.326-0.133,0.115-0.479c-0.172-0.277-0.757-2.414-0.968-3.535
		c-0.086-0.412-0.066-0.479,0.144-0.709l0.23-0.239l0.364,0.374c0.364,0.373,0.373,0.383,0.642,0.239
		c0.23-0.125,0.345-0.125,0.651-0.038c0.201,0.067,0.45,0.096,0.546,0.058c0.096-0.029,0.47-0.068,0.834-0.097
		c0.363-0.02,0.938-0.066,1.293-0.105c0.527-0.048,0.68-0.028,1.025,0.145c0.297,0.153,0.642,0.22,1.379,0.258
		c1.438,0.077,1.609,0.077,2.165-0.057c0.441-0.105,0.536-0.173,0.699-0.489c0.211-0.421,0.307-0.479,0.221-0.144
		c-0.028,0.125-0.01,0.259,0.048,0.287c0.058,0.039,0.105,0.192,0.105,0.354c0,0.211-0.144,0.422-0.623,0.91
		c-0.623,0.652-0.919,1.151-1.053,1.763c-0.048,0.23-0.221,0.471-0.576,0.797c-0.286,0.248-0.612,0.611-0.728,0.813
		c-0.115,0.193-0.469,0.623-0.785,0.939c-0.316,0.326-0.546,0.643-0.508,0.689c0.028,0.059-0.269,0.279-0.661,0.488
		c-0.738,0.412-0.786,0.488-0.623,0.92c0.087,0.221,0.125,0.24,0.441,0.184c0.296-0.059,0.344-0.039,0.306,0.113
		c-0.02,0.115-0.162,0.201-0.392,0.26c-0.191,0.047-0.403,0.172-0.46,0.268C21.72,24.885,21.692,24.895,21.367,24.762z
		 M21.835,20.891c0.135-0.078,0.384-0.135,0.556-0.145c0.315,0,0.363-0.057,0.229-0.258c-0.144-0.221-1.561-0.145-1.705,0.086
		c-0.076,0.115,0.326,0.459,0.537,0.449C21.529,21.023,21.702,20.967,21.835,20.891z M22.295,19.76
		c0.115-0.105,0.211-0.23,0.211-0.277c0-0.049,0.152-0.307,0.335-0.586c0.441-0.641,0.46-1.14,0.077-1.293
		c-0.422-0.153-1.6-0.22-1.936-0.105c-0.269,0.096-0.297,0.144-0.297,0.479c0,0.508,0.191,0.929,0.613,1.323
		c0.211,0.201,0.345,0.42,0.345,0.564c0,0.191,0.038,0.211,0.221,0.162C21.979,19.99,22.171,19.865,22.295,19.76z"/>
	<path fill="#B4ADB0" d="M27.966,13.954c0-0.374-0.546-0.853-1.216-1.063c-0.345-0.105-0.738-0.192-0.872-0.192
		c-0.45,0-0.076-0.2,0.584-0.315l0.623-0.105l0.066-0.651c0.038-0.354,0.106-0.68,0.154-0.708c0.096-0.059,0.488,0.134,0.584,0.286
		c0.038,0.058,0.048,0.191,0.019,0.298c-0.028,0.134,0.048,0.287,0.25,0.479c0.277,0.259,0.287,0.307,0.287,1.063
		c0,0.729-0.019,0.795-0.239,0.938C27.976,14.136,27.966,14.126,27.966,13.954z"/>
	<path fill="#B4ADB0" d="M19.546,13.417c-0.278-0.22-0.671-0.459-0.881-0.526c-0.316-0.105-0.394-0.105-0.624,0.048
		c-0.134,0.086-0.22,0.115-0.182,0.058c0.039-0.067,0.02-0.172-0.048-0.25c-0.057-0.076-0.096-0.248-0.076-0.401
		c0.02-0.201,0.076-0.269,0.22-0.259c0.191,0.02,0.948,0.297,1.543,0.584c0.345,0.163,0.651,0.652,0.604,0.958
		C20.063,13.82,20.025,13.801,19.546,13.417z"/>
</g>
<g id="layer105">
	<path fill="#D3CFD0" d="M20.092,21.379c-0.622-0.346-0.968-0.643-1.236-1.074c-0.104-0.172-0.296-0.334-0.431-0.363
		c-0.211-0.057-0.24-0.096-0.182-0.354c0.048-0.193,0.009-0.365-0.087-0.518c-0.21-0.326-0.191-0.69,0.048-0.814
		c0.25-0.135,0.27-0.115,0.355,0.373l0.066,0.402l0.402-0.287c0.229-0.163,0.45-0.298,0.489-0.298c0.048,0,0.028,0.222-0.039,0.499
		c-0.076,0.277-0.134,0.564-0.134,0.633c0,0.162,0.584,0.996,1.044,1.484c0.287,0.307,0.393,0.355,0.747,0.355
		c0.307,0,0.412,0.037,0.412,0.143C21.548,21.83,20.706,21.725,20.092,21.379z"/>
	<path fill="#D3CFD0" d="M23.273,21.139c0-0.047,0.057-0.133,0.134-0.191c0.249-0.211,0.249-0.871-0.02-1.428l-0.239-0.498
		l0.163-0.939c0.086-0.517,0.153-1.034,0.153-1.148c0-0.259,0.144-0.269,0.986-0.029c0.355,0.105,0.643,0.144,0.643,0.096
		s0.104-0.086,0.229-0.086c0.163,0,0.259,0.067,0.307,0.211c0.039,0.125,0.153,0.325,0.249,0.469l0.191,0.25l-0.297,0.297
		c-0.229,0.229-0.297,0.373-0.297,0.68c0,0.279-0.048,0.412-0.183,0.488c-0.105,0.049-0.239,0.25-0.296,0.432
		c-0.144,0.441-0.547,0.91-0.776,0.91c-0.096,0-0.325,0.135-0.498,0.287C23.377,21.234,23.273,21.283,23.273,21.139z"/>
	<path fill="#D3CFD0" d="M20.054,18.217c0.058-0.44,0.048-0.518-0.106-0.575c-0.152-0.066-0.152-0.086,0.058-0.239
		c0.154-0.114,0.211-0.229,0.173-0.335c-0.105-0.259-0.307-0.172-0.747,0.297c-0.393,0.432-0.45,0.46-0.93,0.47l-0.508,0.019
		l0.183-0.307c0.125-0.22,0.269-0.315,0.546-0.373c0.211-0.048,0.623-0.211,0.92-0.364s0.584-0.277,0.633-0.277
		c0.134,0,0.555,0.795,0.439,0.833c-0.057,0.02-0.182,0.096-0.277,0.163c-0.152,0.125-0.162,0.163-0.048,0.383
		c0.125,0.221,0.115,0.269-0.019,0.422c-0.096,0.096-0.163,0.23-0.163,0.287c0,0.069-0.048,0.116-0.105,0.116
		C20.025,18.734,20.016,18.571,20.054,18.217z"/>
</g>
<text transform="matrix(1 0 0 1 41.0171 29.8604)" font-family="'MyriadPro-Regular'" font-size="31.7294">AWJ</text>
</svg>
