<?xml version="1.0" encoding="utf-8"?>
<!-- Generator: Adobe Illustrator 14.0.0, SVG Export Plug-In . SVG Version: 6.00 Build 43363)  -->
<!DOCTYPE svg PUBLIC "-//W3C//DTD SVG 1.1//EN" "http://www.w3.org/Graphics/SVG/1.1/DTD/svg11.dtd">
<svg version="1.1" id="Layer_1" xmlns="http://www.w3.org/2000/svg" xmlns:xlink="http://www.w3.org/1999/xlink" x="0px" y="0px"
	 width="103.539px" height="38.045px" viewBox="0 0 103.539 38.045" enable-background="new 0 0 103.539 38.045"
	 xml:space="preserve">
<ellipse fill="#FFFFFF" cx="23.796" cy="18.01" rx="17.635" ry="14.121"/>
<g id="layer101">
	<path fill="#3B3135" d="M21.18,32.253c-1.791-0.249-3.659-0.795-5.153-1.494l-0.892-0.412l0.058-1.227
		c0.077-1.552,0.077-1.552,0.527-2.271c0.211-0.335,0.383-0.632,0.383-0.671c0-0.038,0.211-0.373,0.47-0.756
		c0.259-0.384,0.498-0.786,0.527-0.901c0.038-0.124,0.239-0.401,0.459-0.622c0.518-0.536,0.786-0.986,0.92-1.532
		c0.163-0.652,0.152-0.939-0.048-0.939c-0.163,0-0.393,0.297-0.699,0.9c-0.221,0.441-1.236,1.207-1.591,1.207
		c-0.67,0-1.265-0.287-2.261-1.082c-0.546-0.432-1.322-1.035-1.725-1.342c-0.411-0.316-1.024-0.9-1.369-1.303
		c-0.346-0.402-0.757-0.833-0.92-0.958c-0.479-0.354-1.006-1.265-1.179-2.031c-0.22-0.967-0.201-1.59,0.077-2.203
		c0.115-0.287,0.25-0.795,0.288-1.14c0.086-0.862,0.487-1.677,1.158-2.328c0.652-0.651,1.217-0.978,2.491-1.446
		c1.523-0.565,1.906-0.785,2.088-1.169c0.134-0.277,0.297-0.402,0.872-0.661c0.891-0.401,1.217-0.488,2.357-0.632
		c1.005-0.115,1.417-0.278,2.202-0.843c1.82-1.322,1.906-1.352,4.503-1.38l1.676-0.02l0.652,0.308
		c0.449,0.21,0.843,0.507,1.254,0.919c0.528,0.546,0.652,0.623,1.073,0.68c0.527,0.087,1.591,0.479,1.955,0.729
		c0.134,0.096,0.785,0.623,1.455,1.169c0.671,0.546,1.553,1.188,1.965,1.417c0.412,0.23,0.853,0.509,0.977,0.614
		c0.259,0.229,0.844,1.389,0.93,1.858c0.048,0.22,0.211,0.44,0.584,0.766c0.565,0.489,1.246,1.322,1.447,1.792
		c0.287,0.622,0.517,1.639,0.46,2.012c-0.049,0.345-0.432,1.265-0.901,2.126c-0.086,0.173-0.488,0.709-0.881,1.188
		c-0.574,0.699-0.91,0.996-1.648,1.484c-0.517,0.336-0.957,0.613-0.978,0.613c-0.162,0-0.919,0.613-0.919,0.747
		c0,0.087,0.125,0.288,0.278,0.45c0.153,0.153,0.431,0.537,0.612,0.844c0.326,0.536,0.335,0.564,0.288,1.341
		c-0.048,0.766-0.039,0.795,0.249,1.198c0.172,0.22,0.277,0.449,0.248,0.498c-0.028,0.048-0.363,0.344-0.746,0.65
		c-2.137,1.754-4.819,3.019-7.683,3.621c-0.978,0.211-1.457,0.25-3.21,0.278C22.732,32.32,21.525,32.301,21.18,32.253z"/>
</g>
<g id="layer102">
	<path fill="#584D51" d="M20.94,32.205c-1.781-0.259-3.439-0.747-4.914-1.446l-0.892-0.412l0.058-1.227
		c0.077-1.552,0.077-1.552,0.527-2.271c0.211-0.335,0.383-0.632,0.383-0.671c0-0.038,0.211-0.373,0.47-0.756
		c0.259-0.384,0.498-0.786,0.527-0.901c0.038-0.124,0.239-0.401,0.459-0.622c0.518-0.536,0.786-0.986,0.92-1.532
		c0.163-0.652,0.152-0.939-0.048-0.939c-0.163,0-0.393,0.297-0.699,0.9c-0.221,0.441-1.236,1.207-1.591,1.207
		c-0.67,0-1.265-0.287-2.261-1.082c-0.546-0.432-1.322-1.035-1.725-1.342c-0.411-0.316-1.024-0.9-1.369-1.303
		c-0.346-0.402-0.757-0.833-0.92-0.958c-0.479-0.354-1.006-1.265-1.179-2.031c-0.22-0.967-0.201-1.59,0.077-2.203
		c0.115-0.287,0.25-0.795,0.288-1.14c0.086-0.862,0.487-1.677,1.158-2.328c0.652-0.651,1.217-0.978,2.491-1.446
		c1.523-0.565,1.906-0.785,2.088-1.169c0.288-0.594,1.849-1.179,3.516-1.313l0.623-0.057l-0.384,0.134
		c-0.21,0.066-0.564,0.134-0.785,0.134c-0.393,0.01-0.402,0.01-0.459,0.422c-0.058,0.354-0.02,0.488,0.277,1.025
		c0.191,0.344,0.363,0.67,0.383,0.718c0.393,1.111,0.412,1.313,0.154,1.687l-0.202,0.268l-0.642-0.239l-0.642-0.24l-0.191,0.24
		c-0.105,0.124-0.308,0.269-0.46,0.297c-0.336,0.086-0.412,0.221-0.221,0.364c0.134,0.105,0.114,0.163-0.134,0.565
		c-0.229,0.363-0.249,0.45-0.134,0.498c0.296,0.114,0.488,0.058,0.757-0.23c0.258-0.268,0.287-0.277,0.449-0.124
		c0.105,0.096,0.153,0.229,0.115,0.335c-0.039,0.144-0.01,0.182,0.125,0.153c0.114-0.02,0.182,0.038,0.201,0.191
		c0.02,0.115,0.153,0.278,0.315,0.354c0.182,0.097,0.278,0.221,0.278,0.374c0,0.316-0.067,0.345-0.44,0.191
		c-0.374-0.153-0.374-0.153-0.182,0.307c0.134,0.325,0.134,0.335-0.125,0.431l-0.26,0.097l0.528,0.335
		c0.382,0.239,0.536,0.297,0.594,0.201c0.114-0.192,0.479-0.163,0.996,0.086c0.594,0.287,0.978,0.249,1.609-0.162
		c0.546-0.364,0.642-0.738,0.307-1.246c-0.192-0.278-0.316-0.373-0.633-0.421c-0.479-0.077-0.517-0.048-0.373,0.277
		c0.105,0.221,0.096,0.269-0.067,0.383c-0.096,0.076-0.192,0.097-0.211,0.048c-0.02-0.048-0.153-0.086-0.287-0.086l-0.259-0.01
		l0.269-0.162c0.258-0.163,0.335-0.346,0.172-0.441c-0.105-0.066-0.699,0.221-0.834,0.412c-0.095,0.125-0.143,0.125-0.373-0.028
		c-0.19-0.125-0.239-0.221-0.19-0.374c0.028-0.114,0.086-0.374,0.114-0.584c0.048-0.278,0.124-0.412,0.354-0.547
		c0.163-0.096,0.488-0.421,0.737-0.728c0.498-0.633,0.719-1.331,0.613-1.944c-0.048-0.259-0.029-0.441,0.058-0.537
		c0.077-0.096,0.124-0.536,0.124-1.341c0.01-1.159,0.02-1.217,0.239-1.398c0.202-0.153,0.212-0.201,0.096-0.278
		c-0.152-0.105,0.067-0.325,0.987-0.938c0.709-0.479,1.313-0.585,3.43-0.613l1.676-0.02l0.652,0.308
		c0.449,0.21,0.843,0.507,1.254,0.919c0.528,0.546,0.652,0.623,1.073,0.68c0.527,0.087,1.591,0.479,1.955,0.729
		c0.134,0.096,0.785,0.623,1.455,1.169c0.671,0.546,1.553,1.188,1.965,1.417c0.412,0.23,0.853,0.509,0.977,0.614
		c0.259,0.229,0.844,1.389,0.93,1.858c0.048,0.22,0.211,0.44,0.584,0.766c0.565,0.489,1.246,1.322,1.447,1.792
		c0.287,0.622,0.517,1.639,0.46,2.012c-0.049,0.345-0.432,1.265-0.901,2.126c-0.086,0.173-0.488,0.709-0.881,1.188
		c-0.574,0.699-0.91,0.996-1.648,1.484c-0.517,0.336-0.957,0.613-0.978,0.613c-0.162,0-0.919,0.613-0.919,0.747
		c0,0.087,0.125,0.288,0.278,0.45c0.153,0.153,0.431,0.537,0.612,0.844c0.326,0.536,0.335,0.564,0.288,1.341
		c-0.048,0.766-0.039,0.795,0.259,1.217l0.315,0.422l-0.507,0.44c-0.853,0.737-2.117,1.6-3.086,2.107
		c-0.517,0.269-0.938,0.45-0.938,0.393c0-0.163-0.383-0.498-0.479-0.44c-0.058,0.038-0.096,0.162-0.096,0.287
		c0,0.316-0.135,0.374-0.479,0.191c-0.268-0.134-0.287-0.182-0.287-0.67c0-0.422,0.038-0.536,0.182-0.623
		c0.153-0.077,0.211-0.058,0.277,0.058c0.059,0.105,0.106,0.125,0.153,0.048c0.049-0.066-0.095-0.173-0.363-0.297
		c-0.526-0.221-0.604-0.527-0.172-0.689c0.363-0.145,0.709-0.661,0.555-0.853c-0.077-0.106-0.191-0.125-0.44-0.077
		c-0.182,0.038-0.374,0.038-0.421-0.01c-0.105-0.105,0.555-0.44,1.034-0.526c0.297-0.058,0.393-0.039,0.612,0.163
		c0.145,0.134,0.336,0.268,0.432,0.296c0.087,0.039,0.163,0.164,0.163,0.278c0,0.182,0.02,0.191,0.096,0.076
		c0.048-0.076,0.096-0.268,0.096-0.411s0.058-0.287,0.135-0.316c0.096-0.038,0.114-0.153,0.086-0.412
		c-0.029-0.22-0.01-0.393,0.058-0.432c0.144-0.086,0.134-0.852-0.01-0.996c-0.087-0.086-0.067-0.162,0.096-0.335
		c0.259-0.268,0.269-0.354,0.039-0.354c-0.25,0-0.327-0.105-0.202-0.249c0.202-0.239-0.01-0.354-0.556-0.287
		c-0.432,0.048-0.584,0.029-0.843-0.135c-0.278-0.172-0.374-0.182-0.737-0.096c-0.69,0.173-0.7,0.173-0.681-0.152
		c0.019-0.24-0.029-0.346-0.221-0.471c-0.229-0.152-0.248-0.2-0.21-0.68c0.028-0.287,0.02-0.546-0.02-0.564
		c-0.038-0.029-0.096-0.384-0.134-0.805c-0.067-0.729-0.058-0.767,0.22-1.217c0.163-0.249,0.316-0.613,0.345-0.796
		c0.028-0.191,0.105-0.508,0.163-0.699c0.077-0.277,0.077-0.393-0.009-0.498c-0.135-0.163-0.067-0.345,0.134-0.345
		c0.067,0,0.229-0.124,0.354-0.278c0.124-0.152,0.316-0.325,0.431-0.383c0.182-0.096,0.202-0.144,0.105-0.345
		c-0.115-0.259,0.02-0.719,0.316-1.054c0.114-0.125,0.182-0.383,0.201-0.767l0.028-0.574l0.671-0.049
		c0.565-0.038,0.671-0.076,0.643-0.21c-0.021-0.105,0.086-0.221,0.268-0.316c0.326-0.163,0.383-0.46,0.134-0.728
		c-0.115-0.125-0.124-0.211-0.048-0.364c0.163-0.307,0.124-0.488-0.134-0.585c-0.134-0.048-0.24-0.134-0.24-0.182
		s-0.096-0.115-0.21-0.144l-0.221-0.067l0.221-0.153c0.316-0.22,0.259-0.374-0.192-0.488c-0.564-0.144-0.833-0.354-0.67-0.508
		c0.163-0.172,0.144-0.277-0.067-0.277c-0.115,0-0.325-0.192-0.536-0.479c-0.191-0.259-0.383-0.479-0.422-0.479
		c-0.038,0-0.144-0.057-0.239-0.124c-0.144-0.105-0.153-0.162-0.067-0.335c0.087-0.173,0.077-0.221-0.086-0.307
		c-0.105-0.058-0.191-0.153-0.201-0.221c0-0.066-0.172-0.259-0.374-0.431l-0.373-0.316l-0.249,0.44c-0.144,0.24-0.25,0.45-0.23,0.47
		c0.02,0.019,0.135,0.077,0.24,0.135c0.182,0.096,0.221,0.22,0.259,0.9c0.086,1.254,0.152,1.504,0.459,1.724
		c0.23,0.173,0.278,0.278,0.278,0.594c0,0.336,0.048,0.422,0.287,0.556c0.307,0.173,0.47,0.594,0.315,0.844
		c-0.057,0.086-0.152,0.65-0.22,1.255c-0.086,0.795-0.162,1.13-0.287,1.235c-0.086,0.087-0.191,0.316-0.221,0.527
		c-0.144,0.862-0.259,1.082-1.063,1.925c-0.44,0.47-0.872,0.996-0.968,1.179c-0.239,0.479-0.152,1.034,0.307,1.763
		c0.23,0.363,0.403,0.775,0.441,1.044c0.057,0.432,0.048,0.46-0.249,0.671c-0.162,0.115-0.661,0.546-1.093,0.958
		c-0.431,0.411-0.823,0.747-0.881,0.747s-0.211,0.163-0.336,0.374c-0.248,0.393-0.795,0.671-2.375,1.197
		c-0.834,0.277-1.255,0.306-1.974,0.114c-0.421-0.104-0.594-0.22-0.996-0.671c-0.259-0.296-0.613-0.612-0.786-0.688
		c-0.163-0.087-0.411-0.259-0.545-0.394c-0.288-0.269-0.433-0.172-0.326,0.23c0.038,0.182,0,0.306-0.183,0.498
		c-0.153,0.163-0.249,0.384-0.268,0.632c-0.029,0.346-0.058,0.384-0.384,0.46c-0.316,0.076-0.345,0.105-0.239,0.269
		c0.105,0.172,0.115,0.172,0.326-0.028c0.211-0.192,0.239-0.202,0.383-0.048c0.153,0.144,0.144,0.172-0.058,0.392
		c-0.124,0.125-0.345,0.288-0.498,0.346c-0.269,0.115-0.278,0.124-0.115,0.383c0.153,0.269,0.153,0.278-0.144,0.622
		c-0.172,0.183-0.306,0.402-0.306,0.479c0,0.144,0.574,0.623,0.756,0.623c0.059,0,0.278-0.086,0.488-0.191
		c0.441-0.221,0.547-0.125,0.336,0.277c-0.077,0.163-0.145,0.488-0.145,0.738c0,0.411,0.011,0.44,0.135,0.277
		c0.076-0.115,0.183-0.153,0.297-0.115c0.163,0.067,0.163,0.182,0,0.69c-0.048,0.162,0.01,0.229,0.287,0.364
		c0.423,0.2,1.313,0.229,1.236,0.028c-0.086-0.23,0.412-0.46,0.833-0.393c0.45,0.076,0.661,0.344,0.661,0.833
		c0,0.191,0.048,0.383,0.096,0.412c0.173,0.105,0.105,0.239-0.115,0.229C21.898,32.329,21.41,32.272,20.94,32.205z M32.101,28.574
		c0-0.058-0.057-0.182-0.125-0.269c-0.114-0.144-0.134-0.114-0.22,0.211c-0.105,0.364-0.096,0.364,0.124,0.259
		C31.996,28.728,32.101,28.632,32.101,28.574z M17.635,25.385c0-0.077,0.164-0.298,0.365-0.479c0.345-0.316,0.345-0.335,0.162-0.47
		c-0.229-0.172-0.354-0.134-0.488,0.145c-0.058,0.114-0.211,0.315-0.325,0.44c-0.221,0.229-0.221,0.239-0.048,0.431
		C17.482,25.652,17.635,25.624,17.635,25.385z M24.149,19.138c0.135-0.47,0.125-0.526-0.086-0.718
		c-0.153-0.144-0.239-0.153-0.546-0.067c-0.23,0.067-0.412,0.067-0.527,0.01c-0.096-0.058-0.345-0.096-0.556-0.096
		c-0.383,0-0.393,0.01-0.393,0.315c0.01,0.402,0.479,1.025,0.929,1.227c0.337,0.144,0.364,0.134,0.719-0.096
		C23.938,19.55,24.083,19.368,24.149,19.138z M27.541,15.805c0.384,0.057,0.44,0.028,0.909-0.384
		c0.451-0.393,0.489-0.46,0.441-0.737c-0.096-0.508-0.259-0.719-0.681-0.93c-0.45-0.21-0.642-0.191-1.494,0.173
		c-0.239,0.105-0.469,0.124-0.719,0.076l-0.363-0.066l0.268-0.192c0.336-0.248,0.326-0.439-0.028-0.564l-0.278-0.105l0.326-0.316
		c0.173-0.182,0.354-0.422,0.393-0.546c0.029-0.124,0.191-0.402,0.346-0.632c0.2-0.297,0.269-0.479,0.229-0.643
		c-0.048-0.2-0.02-0.248,0.201-0.297c0.546-0.115,0.738-0.201,0.834-0.354c0.144-0.23,0.009-0.298-0.326-0.163
		c-0.192,0.076-0.479,0.095-0.872,0.057c-1.035-0.124-1.083-0.22-0.326-0.775c0.288-0.211,0.528-0.412,0.528-0.44
		c0-0.115-0.7-0.374-0.872-0.326c-0.135,0.048-0.183,0.01-0.183-0.134c0-0.105,0.038-0.221,0.096-0.249
		c0.058-0.039,0.038-0.163-0.048-0.346c-0.114-0.21-0.211-0.277-0.431-0.277c-0.239,0-0.287-0.038-0.287-0.239
		c0-0.287-0.432-0.546-0.719-0.422c-0.288,0.115-1.063,0.096-1.332-0.028c-0.221-0.096-0.269-0.077-0.431,0.134
		c-0.134,0.163-0.364,0.277-0.748,0.354c-0.709,0.163-0.891,0.259-0.891,0.488c0,0.105-0.086,0.326-0.191,0.499
		c-0.249,0.411-0.239,0.728,0.029,1.015l0.21,0.229l-0.229,0.183c-0.124,0.096-0.307,0.182-0.402,0.182
		c-0.259,0-0.23,0.212,0.066,0.47c0.212,0.182,0.24,0.269,0.192,0.574c-0.038,0.24-0.01,0.422,0.086,0.547
		c0.077,0.096,0.144,0.325,0.144,0.498c0,0.259,0.058,0.335,0.326,0.46c0.374,0.182,0.632,0.574,0.632,0.968
		c0,0.152,0.038,0.316,0.086,0.373c0.048,0.048,0.115,0.287,0.153,0.527c0.067,0.421,0.058,0.44-0.229,0.564
		c-0.373,0.154-0.968,0.862-0.729,0.862c0.087,0,0.365-0.096,0.623-0.2c0.258-0.116,0.536-0.183,0.604-0.154
		c0.077,0.029,0.259-0.028,0.412-0.134c0.335-0.22,0.613-0.239,0.613-0.038c0,0.163,0.153,0.191,0.239,0.048
		c0.105-0.172,0.335-0.105,0.604,0.172c0.239,0.259,0.968,0.623,1.407,0.709c0.106,0.02,0.461-0.086,0.796-0.239
		C27.015,15.805,27.215,15.766,27.541,15.805z"/>
	<path fill="#584D51" d="M22.809,32.225c-0.393-0.106-0.432-0.145-0.412-0.394c0.029-0.393,0.153-0.488,0.422-0.325
		c0.364,0.2,0.891,0.162,0.948-0.067c0.076-0.259,0.651-0.44,1.466-0.47c0.449-0.019,0.68-0.066,0.737-0.162
		c0.049-0.077,0.183-0.135,0.307-0.135c0.172,0,0.239-0.096,0.393-0.574c0.125-0.422,0.144-0.623,0.077-0.738
		c-0.145-0.239,0.028-0.307,0.354-0.134c0.449,0.23,0.938,0.288,1.006,0.115c0.028-0.077,0.287-0.259,0.556-0.403
		c0.479-0.238,0.507-0.238,0.632-0.076c0.163,0.23,0.153,0.47-0.029,0.623c-0.086,0.067-0.124,0.201-0.096,0.307
		c0.029,0.115-0.038,0.316-0.152,0.469c-0.163,0.23-0.239,0.269-0.45,0.221c-0.336-0.087-0.489-0.221-0.489-0.44
		c0-0.105-0.038-0.183-0.086-0.183s-0.153-0.028-0.239-0.058c-0.115-0.038-0.153,0-0.153,0.145c0,0.134-0.106,0.259-0.336,0.363
		c-0.258,0.125-0.306,0.183-0.22,0.288c0.076,0.096,0.058,0.182-0.105,0.345c-0.229,0.259-0.269,0.594-0.067,0.67
		c0.249,0.096,0.067,0.441-0.269,0.499c-0.862,0.144-1.705,0.239-2.298,0.239h-0.652l0.048-0.259l0.058-0.268l-0.115,0.268
		C23.527,32.377,23.451,32.387,22.809,32.225z"/>
	<path fill="#584D51" d="M27.791,31.765c0-0.048,0.038-0.077,0.086-0.048c0.048,0.028,0.114-0.011,0.144-0.097
		c0.038-0.086,0.124-0.134,0.2-0.096c0.096,0.029,0.144-0.01,0.144-0.134c0-0.249,0.202-0.345,0.336-0.162
		c0.096,0.144,0.135,0.144,0.316,0.009c0.134-0.096,0.21-0.249,0.21-0.422c0-0.363,0.145-0.44,0.441-0.239
		c0.172,0.115,0.229,0.221,0.211,0.412c-0.029,0.23-0.115,0.278-0.987,0.565C27.791,31.898,27.791,31.898,27.791,31.765z"/>
	<path fill="#584D51" d="M23.613,31.074c-0.096-0.268,0-0.498,0.239-0.526c0.374-0.058,0.413,0.114,0.105,0.412
		C23.719,31.189,23.671,31.208,23.613,31.074z"/>
	<path fill="#584D51" d="M23.547,29.781c-0.039-0.048,0.057-0.229,0.21-0.402c0.249-0.297,0.288-0.315,0.585-0.229
		c0.172,0.048,0.335,0.144,0.354,0.2C24.763,29.542,23.642,29.954,23.547,29.781z"/>
	<path fill="#584D51" d="M19.445,29.418l-0.229-0.24l0.239-0.191c0.375-0.297,0.557-0.383,0.613-0.287
		c0.029,0.048-0.009,0.134-0.086,0.2c-0.076,0.067-0.144,0.24-0.144,0.394C19.839,29.666,19.715,29.704,19.445,29.418z"/>
	<path fill="#584D51" d="M25.185,29.273c-0.259-0.144-0.201-0.431,0.124-0.67c0.239-0.173,0.335-0.192,0.527-0.097
		c0.259,0.115,0.326,0.546,0.114,0.757C25.808,29.407,25.404,29.407,25.185,29.273z"/>
	<path fill="#584D51" d="M19.321,28.421c-0.268-0.326-0.306-0.432-0.153-0.527c0.153-0.095,0.45,0.125,0.518,0.394
		C19.791,28.689,19.609,28.756,19.321,28.421z"/>
	<path fill="#584D51" d="M21.391,27.693c-0.287-0.202-0.183-0.336,0.202-0.259c0.354,0.066,0.563,0.2,0.487,0.325
		C22.004,27.894,21.631,27.855,21.391,27.693z"/>
	<path fill="#584D51" d="M30.598,26.409c-0.173-0.105-0.337-0.297-0.374-0.421c-0.059-0.24-0.067-0.24-0.345-0.097
		c-0.191,0.105-0.326,0.115-0.384,0.058c-0.115-0.115,0.632-0.546,0.776-0.45c0.096,0.058,0.315-0.182,0.278-0.297
		c-0.01-0.048,0.162-0.277,0.382-0.498c0.364-0.393,0.595-0.46,0.595-0.172c0,0.076,0.067,0.182,0.144,0.248
		c0.201,0.173,0.182,0.508-0.058,0.805c-0.162,0.211-0.183,0.278-0.076,0.403c0.086,0.104,0.086,0.2,0.01,0.373
		C31.412,26.658,31.027,26.677,30.598,26.409z"/>
</g>
<g id="layer103">
	<path fill="#867779" d="M19.552,31.956c-1.169-0.259-2.501-0.709-3.516-1.188l-0.892-0.422l0.01-0.412
		c0-0.23,0.038-0.604,0.076-0.843c0.059-0.402,0.068-0.412,0.135-0.163c0.038,0.144,0.115,0.259,0.163,0.259
		s0.229,0.124,0.402,0.278c0.172,0.152,0.46,0.306,0.632,0.344c0.278,0.058,0.307,0.097,0.307,0.44v0.374l0.364-0.058
		c0.345-0.057,0.383-0.038,0.488,0.211c0.096,0.249,0.153,0.278,0.575,0.287c0.334,0,0.613,0.087,0.996,0.308
		c0.316,0.182,0.68,0.307,0.871,0.307c0.269,0,0.326,0.038,0.364,0.239C20.586,32.195,20.614,32.195,19.552,31.956z"/>
	<path fill="#867779" d="M33.116,29.484c-0.028-0.038,0.059-0.125,0.183-0.183c0.134-0.066,0.239-0.076,0.239-0.038
		C33.538,29.379,33.164,29.57,33.116,29.484z"/>
	<path fill="#867779" d="M33.845,28.556c-0.173-0.077-0.307-0.173-0.288-0.211c0.259-0.508,0.316-0.585,0.585-0.633l0.307-0.057
		l-0.384-0.24c-0.211-0.124-0.498-0.259-0.642-0.288c-0.144-0.038-0.287-0.095-0.315-0.143c-0.097-0.153,0.067-0.374,0.335-0.432
		c0.22-0.048,0.277-0.124,0.326-0.45c0.047-0.278,0.018-0.45-0.087-0.612c-0.077-0.126-0.144-0.298-0.144-0.394
		s-0.067-0.259-0.144-0.354c-0.077-0.105-0.144-0.326-0.144-0.498s-0.049-0.326-0.105-0.345c-0.058-0.02,0.077-0.173,0.287-0.346
		c0.315-0.258,0.393-0.286,0.393-0.143c0,0.086,0.125,0.297,0.278,0.459c0.153,0.153,0.431,0.537,0.612,0.844
		c0.326,0.536,0.335,0.564,0.288,1.341c-0.048,0.766-0.039,0.795,0.249,1.188c0.345,0.47,0.364,0.557,0.124,0.422
		c-0.22-0.115-0.402,0.038-0.402,0.335c0,0.135-0.124,0.316-0.316,0.46C34.295,28.737,34.275,28.747,33.845,28.556z"/>
	<path fill="#867779" d="M16.074,26.218c0.066-0.239,0.183-0.326,0.269-0.191c0.066,0.104-0.105,0.383-0.24,0.383
		C16.055,26.409,16.045,26.322,16.074,26.218z"/>
	<path fill="#867779" d="M21.851,25.911c-0.182-0.048-0.402-0.153-0.488-0.23c-0.077-0.066-0.288-0.162-0.46-0.19
		c-0.22-0.048-0.47-0.24-0.843-0.662c-0.364-0.412-0.719-0.689-1.102-0.871c-0.537-0.259-0.565-0.287-0.518-0.546l0.057-0.269
		l-0.344,0.269l-0.346,0.259l0.288-0.432c0.277-0.421,0.497-1.111,0.497-1.562c0-0.182-0.048-0.249-0.191-0.249
		c-0.191,0-0.191,0,0-0.479c0.259-0.652,0.259-1.648,0-2.251c-0.104-0.25-0.191-0.557-0.191-0.681c0-0.134-0.095-0.604-0.2-1.044
		c-0.202-0.805-0.192-1.294,0.038-1.294c0.058,0,0.325,0.105,0.583,0.239c0.289,0.145,0.633,0.24,0.892,0.24
		c0.355,0,0.412,0.028,0.412,0.2c0,0.154,0.038,0.183,0.173,0.135c0.086-0.038,0.421-0.087,0.737-0.115
		c0.325-0.028,0.719-0.134,0.9-0.249l0.325-0.201l0.221,0.278c0.211,0.268,0.221,0.268,0.978,0.21
		c0.729-0.058,0.767-0.048,0.881,0.163c0.202,0.394,0.527,0.47,1.858,0.451c1.39-0.029,1.581-0.097,1.974-0.729
		c0.115-0.182,0.269-0.335,0.345-0.335s0.135-0.059,0.135-0.125c0-0.067,0.134-0.278,0.297-0.479
		c0.259-0.316,0.297-0.421,0.249-0.757c-0.096-0.698-0.853-1.216-1.581-1.072c-0.421,0.086-0.785-0.029-0.785-0.24
		c0-0.239,0.124-0.325,0.891-0.632c0.68-0.277,0.833-0.431,0.833-0.891c0-0.229,0.058-0.307,0.298-0.412
		c0.277-0.115,0.315-0.105,0.488,0.105c0.096,0.115,0.221,0.402,0.278,0.633c0.057,0.229,0.162,0.469,0.239,0.526
		c0.096,0.076,0.134,0.354,0.134,0.996v0.891l-0.335,0.211c-0.384,0.239-0.479,0.499-0.394,1.083c0.039,0.277,0,0.632-0.134,1.121
		c-0.182,0.642-0.248,0.756-0.757,1.216c-0.747,0.671-1.006,1.217-0.938,1.993c0.086,0.938,0.22,1.379,0.547,1.839
		c0.296,0.412,0.306,0.441,0.143,0.536c-0.104,0.058-0.46,0.355-0.795,0.661c-0.326,0.316-0.757,0.633-0.938,0.709
		c-0.182,0.077-0.565,0.364-0.834,0.642c-0.546,0.547-1.533,1.111-2.356,1.352C22.426,26.045,22.329,26.045,21.851,25.911z
		 M23.938,19.607c0.403-0.565,0.499-0.757,0.451-0.948c-0.096-0.421-0.278-0.479-1.38-0.46l-1.016,0.019l-0.028,0.269
		c-0.039,0.346,0.19,0.834,0.518,1.131c0.144,0.125,0.363,0.346,0.507,0.498c0.135,0.144,0.288,0.249,0.345,0.229
		C23.384,20.326,23.661,19.99,23.938,19.607z"/>
	<path fill="#867779" d="M16.399,25.672c0.067-0.096,0.135-0.191,0.153-0.211c0.01-0.01,0.067,0,0.125,0.038
		c0.076,0.048,0.047,0.105-0.067,0.201C16.371,25.883,16.247,25.863,16.399,25.672z"/>
	<path fill="#867779" d="M14.8,23.161c-0.172-0.105-0.335-0.239-0.373-0.296c-0.059-0.087,0.632,0.287,0.804,0.44
		C15.355,23.42,15.049,23.315,14.8,23.161z"/>
	<path fill="#867779" d="M12.846,20.959c0-0.097,0.287-0.23,0.354-0.164c0.029,0.029,0.02,0.087-0.019,0.144
		C13.104,21.063,12.846,21.083,12.846,20.959z"/>
	<path fill="#867779" d="M11.398,20.479l-0.421-0.411l0.383,0.221c0.499,0.277,0.557,0.335,0.509,0.479
		C11.84,20.843,11.677,20.747,11.398,20.479z"/>
	<path fill="#867779" d="M38.52,18.621c0-0.067,0.066-0.211,0.144-0.316c0.125-0.163,0.134-0.153,0.038,0.134
		C38.596,18.755,38.52,18.832,38.52,18.621z"/>
	<path fill="#867779" d="M38.922,17.586c0.048-0.277,0.066-0.775,0.038-1.092l-0.048-0.575l0.153,0.498
		c0.163,0.547,0.114,1.217-0.105,1.523C38.845,18.084,38.845,18.036,38.922,17.586z"/>
	<path fill="#867779" d="M35.339,16.811c-0.02-0.163-0.076-0.211-0.239-0.191c-0.22,0.028-0.891-0.24-0.891-0.354
		c0-0.096,0.535-0.394,0.698-0.394c0.298,0,0.269-0.2-0.048-0.335c-0.191-0.077-0.248-0.134-0.144-0.144
		c0.23,0,0.93,0.402,0.93,0.546c0,0.211,0.163,0.221,0.422,0.019c0.134-0.104,0.248-0.144,0.248-0.086s0.153,0.25,0.336,0.441
		c0.183,0.182,0.335,0.421,0.335,0.526c0,0.183-0.038,0.192-0.498,0.135c-0.277-0.039-0.574-0.106-0.651-0.145
		c-0.086-0.058-0.201-0.028-0.307,0.067C35.387,17.021,35.367,17.012,35.339,16.811z"/>
	<path fill="#867779" d="M8.63,16.619c0-0.087-0.028-0.221-0.057-0.298c-0.029-0.076,0.019-0.162,0.114-0.2
		c0.23-0.087,0.25-0.029,0.097,0.335C8.697,16.638,8.64,16.705,8.63,16.619z"/>
	<path fill="#867779" d="M33.769,15.594c0-0.115,0.085-0.201,0.21-0.23c0.163-0.028,0.201,0,0.153,0.115
		c-0.048,0.145-0.201,0.297-0.307,0.297C33.796,15.775,33.769,15.689,33.769,15.594z"/>
	<path fill="#867779" d="M38.701,15.564c-0.191-0.325-0.364-0.843-0.268-0.785c0.104,0.058,0.488,0.92,0.431,0.968
		C38.845,15.775,38.769,15.689,38.701,15.564z"/>
	<path fill="#867779" d="M20.854,14.301c-0.547-0.575-0.824-0.681-1.418-0.527c-0.229,0.058-0.498,0.096-0.603,0.096
		c-0.183,0-0.528-0.354-0.519-0.537c0-0.048,0.239-0.354,0.527-0.66l0.517-0.574l0.269,0.248c0.345,0.326,0.891,0.652,1.093,0.652
		c0.22,0,0.718,0.44,0.9,0.785c0.182,0.354,0.096,1.034-0.125,1.034C21.41,14.817,21.122,14.588,20.854,14.301z"/>
	<path fill="#867779" d="M37.609,13.908c-0.153-0.125-0.259-0.26-0.229-0.278c0.027-0.029,0.172,0.076,0.325,0.23
		C38.04,14.204,38.002,14.224,37.609,13.908z"/>
	<path fill="#867779" d="M9.063,13.505c0.038-0.574,0.334-1.513,0.401-1.303c0.028,0.067-0.028,0.239-0.105,0.402
		c-0.086,0.153-0.153,0.47-0.162,0.7c0,0.229-0.048,0.498-0.096,0.604C9.033,14.042,9.023,13.917,9.063,13.505z"/>
	<path fill="#867779" d="M36.431,12.624c-0.105-0.173-0.163-0.402-0.134-0.536c0.019-0.135,0.058-0.24,0.066-0.24
		c0.067,0,0.355,0.978,0.307,1.025C36.643,12.901,36.527,12.786,36.431,12.624z"/>
	<path fill="#867779" d="M13.899,11.8c-0.144-0.172-0.325-0.182-0.584-0.019c-0.164,0.096-0.212,0.086-0.316-0.048
		c-0.086-0.115-0.259-0.173-0.518-0.173c-0.335,0-0.412-0.039-0.594-0.335c-0.221-0.364-0.23-0.805,0-0.91
		c1.006-0.498,1.379-0.671,1.446-0.671c0.038,0,0.211,0.191,0.374,0.431c0.335,0.479,0.488,0.527,0.719,0.221l0.153-0.221
		l0.182,0.24c0.44,0.556,0.345,0.986-0.229,1.034c-0.336,0.029-0.471,0.221-0.25,0.354c0.154,0.096,0.106,0.239-0.086,0.239
		C14.101,11.943,13.966,11.877,13.899,11.8z"/>
	<path fill="#867779" d="M16.563,10.133c-0.432-0.67-0.432-0.68-0.201-0.68c0.134,0,0.354-0.086,0.498-0.182l0.259-0.192
		l0.364,0.729l0.354,0.718l-0.259-0.057c-0.211-0.058-0.297-0.029-0.421,0.134C17.003,10.804,16.993,10.794,16.563,10.133z"/>
	<path fill="#867779" d="M32.11,9.463c-0.077-0.048-0.191-0.288-0.249-0.527c-0.096-0.373-0.096-0.459,0.048-0.584
		c0.135-0.125,0.23-0.077,0.948,0.507c0.729,0.585,0.9,0.892,0.336,0.585c-0.191-0.096-0.308-0.096-0.556-0.01
		C32.273,9.568,32.283,9.568,32.11,9.463z"/>
	<path fill="#867779" d="M15.337,8.639c-0.125-0.144-0.048-0.374,0.105-0.287c0.048,0.038,0.134,0.144,0.182,0.249
		c0.076,0.144,0.066,0.182-0.029,0.182C15.519,8.782,15.403,8.715,15.337,8.639z"/>
	<path fill="#867779" d="M27.167,6.244l-0.277-0.23l0.259-0.096c0.144-0.058,0.258-0.163,0.258-0.249
		c0-0.201,0.096-0.182,0.432,0.096c0.23,0.183,0.249,0.221,0.087,0.183c-0.202-0.058-0.375,0.086-0.433,0.363
		C27.454,6.445,27.416,6.436,27.167,6.244z"/>
</g>
<g id="layer104">
	<path fill="#B4ADB0" d="M16.82,31.112c-0.469-0.2-1.005-0.431-1.178-0.526l-0.306-0.163l0.144-0.335
		c0.076-0.192,0.144-0.374,0.144-0.412c0-0.028,0.086,0.048,0.182,0.172c0.153,0.192,0.201,0.212,0.394,0.106
		c0.172-0.097,0.239-0.087,0.363,0.038c0.134,0.134,0.134,0.191,0.038,0.345c-0.105,0.173-0.086,0.229,0.144,0.432
		c0.153,0.124,0.47,0.277,0.729,0.335c0.269,0.066,0.45,0.172,0.45,0.249C17.923,31.544,17.779,31.515,16.82,31.112z"/>
	<path fill="#B4ADB0" d="M15.174,29.857c0-0.287,0.019-0.411,0.038-0.258c0.019,0.144,0.019,0.373,0,0.526
		C15.192,30.27,15.174,30.146,15.174,29.857z"/>
	<path fill="#B4ADB0" d="M22.627,25.347c-0.125-0.049-0.316-0.068-0.412-0.029c-0.269,0.086-0.747-0.144-0.853-0.412
		c-0.059-0.144-0.163-0.221-0.316-0.221s-0.22-0.048-0.211-0.163c0-0.105-0.066-0.182-0.182-0.201
		c-0.105-0.009-0.269-0.153-0.354-0.307c-0.087-0.152-0.335-0.363-0.556-0.479c-0.211-0.105-0.479-0.336-0.575-0.508
		c-0.2-0.326-0.248-0.498-0.104-0.412c0.124,0.086,0.584-0.105,0.584-0.239c0-0.058-0.086-0.125-0.183-0.153
		c-0.153-0.038-0.172-0.076-0.086-0.22c0.134-0.212,0.028-0.518-0.163-0.441c-0.096,0.029-0.144-0.009-0.144-0.125
		c0-0.134,0.048-0.172,0.182-0.134c0.278,0.068,0.326-0.134,0.115-0.479c-0.172-0.277-0.757-2.414-0.968-3.535
		c-0.086-0.412-0.066-0.479,0.144-0.709l0.23-0.239l0.364,0.374c0.364,0.373,0.373,0.383,0.642,0.239
		c0.23-0.125,0.345-0.125,0.651-0.038c0.201,0.067,0.45,0.096,0.546,0.058c0.096-0.029,0.47-0.068,0.834-0.097
		c0.363-0.02,0.938-0.066,1.293-0.105c0.527-0.048,0.68-0.028,1.025,0.145c0.297,0.153,0.642,0.22,1.379,0.258
		c1.438,0.077,1.609,0.077,2.165-0.057c0.441-0.105,0.536-0.173,0.699-0.489c0.211-0.421,0.307-0.479,0.221-0.144
		c-0.028,0.125-0.01,0.259,0.048,0.287c0.058,0.039,0.105,0.192,0.105,0.354c0,0.211-0.144,0.422-0.623,0.91
		c-0.623,0.652-0.919,1.15-1.053,1.763c-0.048,0.23-0.221,0.47-0.576,0.796c-0.286,0.248-0.612,0.612-0.728,0.813
		c-0.115,0.192-0.469,0.623-0.785,0.939c-0.316,0.325-0.546,0.642-0.508,0.689c0.028,0.058-0.269,0.278-0.661,0.488
		c-0.738,0.412-0.786,0.488-0.623,0.92c0.087,0.221,0.125,0.239,0.441,0.183c0.296-0.058,0.344-0.039,0.306,0.114
		c-0.02,0.115-0.162,0.201-0.392,0.259c-0.191,0.048-0.403,0.173-0.46,0.269C22.98,25.471,22.952,25.48,22.627,25.347z
		 M23.096,21.476c0.135-0.077,0.384-0.135,0.556-0.144c0.315,0,0.363-0.058,0.229-0.259c-0.144-0.221-1.561-0.144-1.705,0.086
		c-0.076,0.115,0.326,0.46,0.537,0.45C22.789,21.609,22.962,21.553,23.096,21.476z M23.556,20.345
		c0.115-0.104,0.211-0.229,0.211-0.277s0.152-0.307,0.335-0.585c0.441-0.641,0.46-1.14,0.077-1.293
		c-0.422-0.153-1.6-0.22-1.936-0.105c-0.269,0.096-0.297,0.144-0.297,0.479c0,0.508,0.191,0.929,0.613,1.322
		c0.211,0.201,0.345,0.421,0.345,0.564c0,0.192,0.038,0.211,0.221,0.163C23.239,20.575,23.432,20.45,23.556,20.345z"/>
	<path fill="#B4ADB0" d="M29.227,14.54c0-0.374-0.546-0.853-1.216-1.063c-0.345-0.105-0.738-0.192-0.872-0.192
		c-0.45,0-0.076-0.2,0.584-0.315l0.623-0.105l0.066-0.651c0.038-0.354,0.106-0.68,0.154-0.708c0.096-0.059,0.488,0.134,0.584,0.286
		c0.038,0.058,0.048,0.191,0.019,0.298c-0.028,0.134,0.048,0.287,0.25,0.479c0.277,0.259,0.287,0.307,0.287,1.063
		c0,0.729-0.019,0.795-0.239,0.938C29.236,14.722,29.227,14.712,29.227,14.54z"/>
	<path fill="#B4ADB0" d="M20.807,14.003c-0.278-0.22-0.671-0.459-0.881-0.526c-0.316-0.105-0.394-0.105-0.624,0.048
		c-0.134,0.086-0.22,0.115-0.182,0.058c0.039-0.067,0.02-0.172-0.048-0.25c-0.057-0.076-0.096-0.248-0.076-0.401
		c0.02-0.201,0.076-0.269,0.22-0.259c0.191,0.02,0.948,0.297,1.543,0.584c0.345,0.163,0.651,0.652,0.604,0.958
		C21.323,14.406,21.285,14.387,20.807,14.003z"/>
</g>
<g id="layer105">
	<path fill="#D3CFD0" d="M21.353,21.964c-0.622-0.345-0.968-0.642-1.236-1.073c-0.104-0.172-0.296-0.334-0.431-0.363
		c-0.211-0.058-0.24-0.096-0.182-0.354c0.048-0.192,0.009-0.364-0.087-0.518c-0.21-0.325-0.191-0.689,0.048-0.813
		c0.25-0.135,0.27-0.115,0.355,0.373l0.066,0.402l0.402-0.287c0.229-0.163,0.45-0.298,0.489-0.298c0.048,0,0.028,0.221-0.039,0.498
		c-0.076,0.278-0.134,0.565-0.134,0.633c0,0.163,0.584,0.996,1.044,1.485c0.287,0.307,0.393,0.354,0.747,0.354
		c0.307,0,0.412,0.038,0.412,0.144C22.809,22.415,21.966,22.31,21.353,21.964z"/>
	<path fill="#D3CFD0" d="M24.533,21.725c0-0.048,0.057-0.134,0.134-0.191c0.249-0.211,0.249-0.872-0.02-1.428l-0.239-0.498
		l0.163-0.939c0.086-0.517,0.153-1.034,0.153-1.148c0-0.259,0.144-0.269,0.986-0.029c0.355,0.105,0.643,0.144,0.643,0.096
		s0.104-0.086,0.229-0.086c0.163,0,0.259,0.067,0.307,0.211c0.039,0.125,0.153,0.325,0.249,0.469l0.191,0.25l-0.297,0.297
		c-0.229,0.229-0.297,0.373-0.297,0.68c0,0.278-0.048,0.412-0.183,0.488c-0.105,0.048-0.239,0.25-0.296,0.432
		c-0.144,0.44-0.547,0.91-0.776,0.91c-0.096,0-0.325,0.135-0.498,0.287C24.638,21.82,24.533,21.868,24.533,21.725z"/>
	<path fill="#D3CFD0" d="M21.314,18.803c0.058-0.44,0.048-0.518-0.106-0.575c-0.152-0.066-0.152-0.086,0.058-0.239
		c0.154-0.114,0.211-0.229,0.173-0.335c-0.105-0.259-0.307-0.172-0.747,0.297c-0.393,0.432-0.45,0.46-0.93,0.47l-0.508,0.019
		l0.183-0.307c0.125-0.22,0.269-0.315,0.546-0.373c0.211-0.048,0.623-0.211,0.92-0.364s0.584-0.277,0.633-0.277
		c0.134,0,0.555,0.795,0.439,0.833c-0.057,0.02-0.182,0.096-0.277,0.163c-0.152,0.125-0.162,0.163-0.048,0.383
		c0.125,0.221,0.115,0.269-0.019,0.422c-0.096,0.096-0.163,0.23-0.163,0.287c0,0.067-0.048,0.115-0.105,0.115
		C21.285,19.32,21.276,19.157,21.314,18.803z"/>
</g>
<text transform="matrix(1 0 0 1 42.2773 30.4463)" fill="#FFFFFF" font-family="'MyriadPro-Regular'" font-size="31.7294">AWJ</text>
</svg>
